<svg xmlns="http://www.w3.org/2000/svg" id="svg" style="display: block;" viewBox="0 0 400 400" width="400" height="400" xmlns:xlink="http://www.w3.org/1999/xlink" version="1.1"><g id="svgg"><path id="path0" fill="#5456b6" fill-rule="evenodd" stroke="none" d="M 59.2 181.678 C 56.645 182.235 56.434 182.669 58.449 183.221 C 61.519 184.061 69.216 183.404 68.132 182.395 C 67.07 181.406 62.231 181.017 59.2 181.678 M 76.596 186.889 C 76.158 187.125 75.751 187.356 75.691 187.402 C 75.63 187.448 76.026 188.268 76.569 189.225 L 77.557 190.964 L 77.979 189.856 C 78.847 187.573 78.14 186.058 76.596 186.889 M 46.943 187.403 C 46.816 187.735 46.839 188.68 46.995 189.503 L 47.277 191 L 48.199 189.2 C 48.855 187.917 48.988 187.316 48.66 187.106 C 47.916 186.631 47.192 186.756 46.943 187.403 M 226.043 190.806 L 224.711 192.463 L 225.896 193.932 C 227.331 195.71 228.937 195.957 232.974 195.021 C 234.446 194.679 237.158 194.4 239.003 194.4 C 242.014 194.4 242.47 194.298 243.478 193.399 L 244.6 192.398 L 243.656 191.599 C 242.91 190.968 242.128 190.8 239.939 190.8 C 238.414 190.8 235.869 190.543 234.283 190.228 C 227.727 188.928 227.542 188.941 226.043 190.806 M 152.126 191.47 C 151.947 191.518 150.99 191.776 150 192.043 L 148.2 192.529 L 149.8 193.034 C 152.927 194.02 160.814 193.454 159.685 192.325 C 159.322 191.962 152.972 191.244 152.126 191.47 M 198.674 191.895 C 195.788 192.121 196.512 192.955 199.831 193.227 C 203.097 193.494 204.611 193.036 203.396 192.147 C 202.984 191.846 202.186 191.632 201.624 191.672 C 201.061 191.712 199.733 191.812 198.674 191.895 M 318.6 191.877 C 315.247 192.317 315.948 192.969 320.224 193.389 C 322.5 193.612 323.145 193.548 323.55 193.061 C 324.518 191.894 322.379 191.382 318.6 191.877 M 341.407 192.388 C 341.055 192.957 342.705 193.262 345.385 193.122 C 346.817 193.048 347.801 192.804 347.902 192.5 C 348.104 191.886 341.785 191.777 341.407 192.388 M 41.65 195.902 C 39.667 199.79 40.761 216.204 42.947 215.365 C 44.791 214.657 45.224 197.403 43.45 195.34 L 42.5 194.236 L 41.65 195.902 M 80.988 195.623 C 79.322 198.845 80.545 215.2 82.452 215.2 C 84.267 215.2 85.144 198.728 83.49 195.7 C 82.601 194.073 81.802 194.048 80.988 195.623 M 326.489 195.423 C 325.372 196.205 325.367 197.16 326.464 200.282 L 327.336 202.765 L 329.968 200.315 C 333.332 197.185 333.32 197.4 330.197 195.998 C 327.046 194.585 327.569 194.666 326.489 195.423 M 206.781 196.436 C 206.329 197.281 206.918 199.6 207.584 199.6 C 208.389 199.6 208.819 197.488 208.205 196.551 C 207.444 195.39 207.345 195.382 206.781 196.436 M 351.171 196.235 C 350.732 196.763 350.769 197.553 351.391 200.935 C 351.949 203.969 352.203 207.892 352.393 216.4 L 352.648 227.8 L 352.731 217.8 C 352.784 211.43 353.027 206.421 353.4 204 C 354.462 197.109 353.43 193.513 351.171 196.235 M 306.3 196.558 C 305.38 197.255 305.417 197.693 306.451 198.339 C 307.581 199.045 308.845 197.996 308.165 196.916 C 307.596 196.015 307.133 195.926 306.3 196.558 M 186.3 196.832 C 185.347 197.387 185.421 197.79 186.57 198.313 C 187.703 198.83 188.58 198.136 188.164 197.051 C 187.88 196.31 187.311 196.243 186.3 196.832 M 166.698 197.359 C 166.359 197.699 165.953 199.105 165.796 200.488 C 165.296 204.886 164.192 205.897 158.873 206.826 C 155.539 207.409 155.735 207.688 160 208.428 C 165.38 209.362 166.986 213.205 165.092 220.613 C 164.335 223.572 165.019 227.432 166.495 228.532 L 167.59 229.349 L 168.595 228.405 L 169.6 227.461 L 169.6 215.312 C 169.6 200.61 168.744 195.313 166.698 197.359 M 142.057 212.7 C 140.319 215.973 140.221 221.999 141.877 223.655 L 142.711 224.489 L 143.596 223.604 C 145.291 221.909 144.541 212.045 142.714 212.006 C 142.557 212.003 142.261 212.315 142.057 212.7 M 47.008 220.755 C 46.678 222.705 47.075 223.371 48.294 222.912 L 49.123 222.6 L 48.211 220.816 L 47.299 219.033 L 47.008 220.755 M 77.101 220.666 C 76.985 221.07 76.761 221.715 76.603 222.1 C 76.382 222.636 76.511 222.8 77.157 222.8 C 77.766 222.8 77.998 222.551 77.994 221.9 C 77.985 220.573 77.37 219.725 77.101 220.666 M 121.677 221.267 C 120.811 222.634 121.401 224.8 122.64 224.8 C 123.363 224.8 124.47 222.851 124.211 222.035 C 123.626 220.192 122.561 219.87 121.677 221.267 M 281.677 221.267 C 280.887 222.514 281.366 224.8 282.417 224.8 C 283.118 224.8 284.454 222.799 284.228 222.087 C 283.627 220.196 282.57 219.856 281.677 221.267 M 62.882 226.012 C 55.91 226.722 55.399 227.56 61.182 228.796 C 63.243 229.236 65.573 229.977 66.36 230.442 L 67.792 231.286 L 69.296 229.592 C 72.084 226.45 70.002 225.288 62.882 226.012 M 106.228 226.917 C 105.473 227.482 105.476 227.506 106.37 227.984 C 107.356 228.512 112.8 228.189 112.8 227.603 C 112.8 226.758 107.219 226.176 106.228 226.917 M 148.411 226.871 C 147.385 227.165 147.176 227.353 147.611 227.591 C 148.543 228.101 152.603 228.849 153.231 228.626 C 153.544 228.515 154.34 228.224 155 227.981 L 156.2 227.538 L 154.854 226.969 C 153.328 226.324 150.469 226.28 148.411 226.871 M 235.389 226.958 C 234.122 227.885 236.844 228.79 240.066 228.512 C 243.059 228.254 244.043 227.713 242.96 226.921 C 241.97 226.197 236.393 226.225 235.389 226.958 M 266.228 226.917 C 265.473 227.482 265.476 227.506 266.37 227.984 C 267.356 228.512 272.8 228.189 272.8 227.603 C 272.8 226.758 267.219 226.176 266.228 226.917 M 78.6 241.397 C 78.38 241.47 77.705 241.639 77.1 241.773 C 74.522 242.341 76.912 243.6 80.57 243.6 C 83.515 243.6 84.794 242.77 83.408 241.757 C 82.735 241.264 79.682 241.036 78.6 241.397" /><path id="path1" fill="#8c8cc4" fill-rule="evenodd" stroke="none" d="M 58.8 180.376 C 52.012 181.617 51.887 183.957 58.57 184.716 C 66.3 185.594 73.939 184.034 71.224 182.131 C 69.005 180.578 62.627 179.677 58.8 180.376 M 67.967 181.467 C 70.598 182.345 70.771 182.685 68.971 183.443 C 64.68 185.249 52.035 183.908 55.561 182.021 C 58.508 180.444 64.147 180.192 67.967 181.467 M 227.2 184.639 C 227.2 187.162 227.128 187.359 225.552 189.139 C 222.802 192.245 222.794 192.376 225.147 195.333 L 227.2 197.913 L 227.2 207.757 C 227.2 216.098 227.289 217.6 227.781 217.6 C 228.867 217.6 229.316 214.672 229.559 206.005 C 229.789 197.817 229.838 197.403 230.6 197.274 C 231.04 197.2 232.69 196.703 234.267 196.17 C 236.294 195.484 238.014 195.2 240.136 195.2 C 244.994 195.2 246.861 193.19 244.186 190.841 C 242.859 189.676 242.578 189.6 239.601 189.6 C 237.475 189.6 235.733 189.347 234.315 188.832 C 233.152 188.41 231.615 187.946 230.9 187.8 L 229.6 187.536 L 229.6 185.015 C 229.6 182.473 229.297 182.038 227.5 182.005 C 227.335 182.002 227.2 183.187 227.2 184.639 M 46.3 186.209 C 45.744 186.765 45.088 188.02 44.842 189 C 44.535 190.217 44.002 191.069 43.156 191.691 C 40.38 193.731 39.817 195.732 39.67 204.091 C 39.506 213.395 39.872 215.034 42.762 217.924 C 43.983 219.145 44.815 220.378 44.996 221.235 C 45.616 224.172 47.904 225.355 51.2 224.444 C 52.608 224.054 52.739 222.581 51.455 221.572 C 50.901 221.136 50.004 219.839 49.46 218.69 C 48.916 217.54 47.932 215.921 47.273 215.092 C 45.251 212.548 44.913 198.042 46.818 195.6 C 47.248 195.05 48.138 193.573 48.796 192.317 C 49.455 191.062 50.537 189.416 51.201 188.66 C 53.587 185.942 48.907 183.602 46.3 186.209 M 73.062 185.931 C 72.161 186.927 72.199 187.081 73.786 188.837 C 74.548 189.681 75.629 191.233 76.187 192.286 C 76.745 193.339 77.607 194.708 78.101 195.329 C 79.993 197.705 79.647 212.825 77.642 215.347 C 77.016 216.135 76.02 217.769 75.427 218.98 C 74.835 220.19 73.912 221.526 73.375 221.948 C 72.839 222.37 72.4 223.001 72.4 223.35 C 72.4 224.195 71.746 224.306 63.8 224.808 C 54.169 225.417 53.2 225.654 53.2 227.396 C 53.2 227.984 57.615 229.553 60 229.812 C 63.019 230.14 65.259 231.154 66.28 232.655 C 66.676 233.237 67.495 234.178 68.1 234.746 C 68.705 235.314 69.2 236.131 69.2 236.561 C 69.2 240.049 75.541 244.8 80.194 244.8 C 87.702 244.8 87.424 240.45 79.888 240.013 C 75.441 239.756 75.531 239.809 73.993 236.584 C 73.122 234.761 72.538 234 72.008 234 C 70.527 234 69.84 232.822 70.753 231.849 C 71.75 230.787 73.18 227.68 73.191 226.549 C 73.203 225.402 73.87 224.95 75.939 224.687 C 78.109 224.411 79.393 223.244 79.947 221.045 C 80.237 219.894 80.891 218.89 82.002 217.893 C 84.969 215.229 85.376 213.705 85.389 205.2 C 85.402 196.29 85.091 194.914 82.352 191.784 C 81.281 190.56 80.291 189.073 80.151 188.48 C 79.461 185.547 74.895 183.906 73.062 185.931 M 78.306 186.398 C 78.778 186.838 79.267 187.873 79.394 188.698 C 79.843 191.613 80.155 192.184 81.517 192.586 C 84.228 193.387 85.004 196.123 84.978 204.8 C 84.951 214.14 84.06 216.8 80.956 216.8 C 79.775 216.8 79.615 216.936 79.437 218.1 C 79.327 218.815 79.124 220.12 78.985 221 C 78.649 223.128 77.789 224.057 76.444 223.744 C 74.541 223.3 74.198 222.641 75.179 221.313 C 75.656 220.669 76.287 219.44 76.582 218.581 C 77.001 217.363 77.392 216.949 78.359 216.699 L 79.6 216.377 L 79.6 206.015 C 79.6 195.416 79.412 193.848 78.088 193.428 C 77.672 193.296 76.911 192.291 76.397 191.194 C 75.884 190.098 75.134 188.902 74.732 188.538 C 73.636 187.547 73.837 186.953 75.5 186.263 C 77.417 185.468 77.302 185.463 78.306 186.398 M 50.052 186.762 C 50.929 187.472 50.949 187.574 50.342 188.262 C 49.984 188.668 49.219 189.942 48.642 191.093 C 47.942 192.49 47.278 193.265 46.647 193.424 C 44.458 193.973 44.527 216.02 46.718 216.33 C 47.401 216.427 47.894 217.042 48.639 218.726 C 49.19 219.972 50.02 221.396 50.484 221.89 L 51.328 222.787 L 49.877 223.394 C 47.218 224.505 46.166 223.785 45.748 220.571 C 45.411 217.975 45.126 217.513 43.536 216.983 C 38.761 215.391 38.547 193.824 43.301 193.274 C 44.717 193.11 45.6 191.809 45.6 189.885 C 45.6 186.478 47.798 184.936 50.052 186.762 M 233.689 189.234 C 235.389 189.655 238.095 190 239.705 190 C 242.351 190 242.762 190.111 244.015 191.164 L 245.4 192.328 L 244.225 193.564 C 243.128 194.719 242.864 194.8 240.212 194.8 C 238.651 194.8 236.39 195.074 235.187 195.408 C 233.984 195.743 231.749 196.22 230.219 196.469 L 227.439 196.921 L 225.719 195.022 C 223.613 192.695 223.61 192.565 225.612 190.033 C 227.451 187.706 227.507 187.701 233.689 189.234 M 149.747 190.562 C 145.669 191.367 144.528 192.429 146.126 193.93 C 146.999 194.75 147.428 194.8 153.626 194.802 C 161.325 194.805 163.085 195.149 163.436 196.718 C 163.569 197.313 163.839 198.43 164.037 199.2 C 165.18 203.658 164.283 204.528 157.468 205.574 C 147.074 207.17 146.874 208.412 156.83 209.552 C 164.35 210.414 164.4 210.453 164.4 215.411 C 164.4 217.879 164.188 219.229 163.575 220.659 C 161.643 225.166 165.358 231.635 168.708 229.597 C 170.914 228.256 170.922 228.2 170.691 214.03 C 170.414 196.958 170.125 195.814 165.886 195 C 164.098 194.657 163.78 194.457 163.662 193.6 C 163.296 190.954 155.918 189.343 149.747 190.562 M 195.926 191.214 C 192.834 192.847 195.125 194.791 200.16 194.806 C 203.186 194.815 204.007 195.403 205.183 198.403 C 205.742 199.831 206.425 201.393 206.7 201.874 C 206.975 202.354 207.203 203.344 207.206 204.074 C 207.224 207.921 209.227 206.631 209.969 202.295 C 210.241 200.703 210.533 199.045 210.618 198.611 C 210.969 196.81 207.054 192.167 204.169 190.961 C 202.176 190.128 197.722 190.265 195.926 191.214 M 315.801 191.042 C 311.905 192.467 312.959 193.711 318.886 194.682 C 325.321 195.736 326 197.728 326 215.544 C 326 229.093 326.107 229.593 328.718 228.243 L 329.908 227.627 L 330.06 215.245 L 330.212 202.863 L 332.749 200.222 C 335.907 196.933 335.773 196.596 330.436 194.394 C 328.366 193.54 326.567 192.675 326.436 192.471 C 325.188 190.515 319.374 189.734 315.801 191.042 M 340.391 191.131 C 335.941 192.777 337.37 194.027 344.534 194.75 C 350.079 195.311 350.353 196.216 350.671 215 C 350.923 229.885 351.074 230.484 354.038 228.373 L 355.2 227.546 L 355.199 212.273 C 355.197 195.136 355.216 195.258 352.26 193.855 C 351.471 193.481 350.685 192.932 350.513 192.636 C 349.275 190.504 344.148 189.741 340.391 191.131 M 159.932 191.524 C 162.405 192.308 162.639 192.768 160.989 193.597 C 157.964 195.117 145.565 194.075 146.607 192.389 C 147.534 190.889 156.161 190.33 159.932 191.524 M 204.041 191.621 C 207.209 193.237 206.184 194.221 201.466 194.093 C 193.476 193.874 193.354 191.235 201.316 190.853 C 201.93 190.824 203.156 191.169 204.041 191.621 M 323.335 191.175 C 323.878 191.382 324.886 192.102 325.575 192.775 C 326.264 193.449 327.081 194 327.392 194 C 328.65 194 334 196.766 334 197.416 C 334 197.78 332.943 199.055 331.651 200.249 C 328.708 202.969 328.759 202.708 328.445 216.8 C 328.236 226.202 328.113 227.8 327.6 227.8 C 327.084 227.8 326.969 226.036 326.78 215.2 C 326.582 203.8 326.483 202.39 325.74 200.4 C 325.289 199.19 324.793 197.517 324.638 196.682 C 324.311 194.914 323.784 194.633 320 194.205 C 317.559 193.93 314.8 193.096 314.8 192.634 C 314.8 191.451 321.188 190.359 323.335 191.175 M 96.858 191.702 C 95.476 193.084 96.483 218.962 97.939 219.498 C 98.803 219.816 99.186 220.407 99.194 221.431 C 99.223 225.331 104.683 229.737 109.368 229.64 C 116.767 229.488 117.003 226.147 109.68 225.232 C 105.481 224.708 105.377 224.642 103.861 221.562 C 102.803 219.413 102.406 218.967 101.4 218.796 L 100.2 218.593 L 100 205.425 L 99.8 192.258 L 98.558 191.751 C 97.625 191.371 97.201 191.359 96.858 191.702 M 256.858 191.702 C 256.269 192.291 256.224 213.754 256.805 216.845 C 257.094 218.385 257.493 219.209 258.205 219.733 C 258.757 220.14 259.2 220.87 259.2 221.374 C 259.2 225.248 264.471 229.575 269.2 229.582 C 276.746 229.594 277.125 226.162 269.68 225.232 C 265.481 224.708 265.377 224.642 263.861 221.562 C 262.803 219.413 262.406 218.967 261.4 218.796 L 260.2 218.593 L 260 205.425 L 259.8 192.258 L 258.558 191.751 C 257.625 191.371 257.201 191.359 256.858 191.702 M 348.72 191.925 C 349.329 192.394 349.55 192.864 349.377 193.316 C 348.911 194.531 340.193 194.084 339.403 192.804 C 338.491 191.329 346.912 190.534 348.72 191.925 M 181.867 192.267 C 181.72 192.413 181.6 200.429 181.6 210.079 C 181.6 229.168 181.506 228.411 183.801 227.836 L 184.8 227.585 L 184.8 214.973 L 184.8 202.361 L 186.389 201.65 C 188.092 200.887 190.4 198.329 190.4 197.204 C 190.4 194.744 183.425 190.708 181.867 192.267 M 302 209.943 C 302 227.477 302.022 228 302.767 228 C 304.874 228 304.8 228.478 304.8 214.925 L 304.8 202.336 L 306.366 201.72 C 308.155 201.018 310.4 198.22 310.4 196.694 C 310.4 193.546 309.234 192.674 304.3 192.137 L 302 191.886 L 302 209.943 M 98.4 202.35 C 98.4 207.822 98.288 212.863 98.15 213.55 C 97.488 216.858 97.2 213.836 97.2 203.6 C 97.2 193.911 97.281 192.4 97.8 192.4 C 98.317 192.4 98.4 193.772 98.4 202.35 M 122.4 204.791 L 122.4 217.181 L 120.633 219.816 L 118.866 222.451 L 119.469 224.22 C 121.404 229.899 126.603 228.523 126.598 222.334 C 126.595 219.678 126.527 219.469 125.298 218.371 L 124 217.211 L 124 204.806 C 124 192.667 123.983 192.4 123.2 192.4 C 122.417 192.4 122.4 192.667 122.4 204.791 M 258.396 202.1 C 258.391 211.837 258.193 214.8 257.548 214.8 C 257.356 214.8 257.2 209.76 257.2 203.6 C 257.2 193.911 257.281 192.4 257.8 192.4 C 258.317 192.4 258.399 193.742 258.396 202.1 M 282.4 204.813 L 282.4 217.225 L 280.634 219.858 L 278.868 222.491 L 279.447 224.134 C 280.612 227.435 282.776 228.478 284.936 226.779 C 287.38 224.857 287.011 218.629 284.404 217.801 C 283.621 217.553 283.6 217.218 283.6 204.973 C 283.6 194.064 283.521 192.4 283 192.4 C 282.48 192.4 282.4 194.046 282.4 204.813 M 308.351 194.84 C 310.58 197.232 308.962 200.48 305.781 199.997 C 303.517 199.653 303.031 199.181 303.082 197.375 C 303.144 195.185 304.048 194.436 307.084 194.06 C 307.351 194.027 307.921 194.378 308.351 194.84 M 208.564 195.631 C 209.838 197.144 209.919 199.086 208.771 200.546 C 207.665 201.952 207.505 201.899 206.48 199.789 C 204.469 195.65 206.004 192.588 208.564 195.631 M 353.828 195.801 L 354.897 197.202 L 354.424 206.501 C 354.164 211.615 353.917 218.481 353.876 221.757 C 353.811 226.828 353.701 227.776 353.134 228.134 C 351.353 229.256 351.2 228.297 351.2 215.986 C 351.2 207.411 351.047 203.67 350.6 201.335 C 349.352 194.814 350.966 192.048 353.828 195.801 M 188.773 195.962 C 189.793 197.395 189.794 197.37 188.725 198.816 C 186.751 201.486 182.11 199.557 183.229 196.532 C 183.996 194.461 187.451 194.105 188.773 195.962 M 168.381 196.577 C 169.715 198.184 169.99 201.272 169.995 214.664 L 170 227.929 L 168.771 228.963 C 165.58 231.648 162.797 225.735 164.438 219.755 C 166.488 212.284 165.081 210.093 157.43 208.84 C 150.13 207.644 150.141 207.518 157.654 206.205 C 164.424 205.022 164.8 204.695 164.8 199.998 C 164.8 197.412 164.927 196.766 165.5 196.432 C 166.51 195.844 167.827 195.91 168.381 196.577 M 144.677 210.392 C 141.375 210.644 140.709 211.309 139.866 215.2 C 138.708 220.539 140.429 226 143.269 226 C 143.661 226 144.282 226.459 144.65 227.02 C 146.665 230.095 154.41 230.72 158.368 228.127 L 159.346 227.486 L 158.467 226.773 C 157.283 225.815 152.639 224.8 149.435 224.8 C 146.212 224.8 145.972 224.466 145.694 219.603 C 145.482 215.87 146.027 214.042 147.604 213.198 C 150.047 211.891 148.202 210.122 144.677 210.392 M 145.3 211.621 C 146.8 212.038 147.174 212.522 146.375 213.015 C 145.481 213.568 145.122 215.552 145.166 219.687 C 145.21 223.868 145.186 223.991 144.187 224.645 C 140.297 227.194 138.401 217.978 141.589 212.02 C 142.078 211.107 143.067 211.001 145.3 211.621 M 124.477 219.864 C 126.802 222.433 124.363 228.338 121.897 226.107 C 119.774 224.185 119.587 222.544 121.221 220.169 C 122.52 218.282 123.004 218.237 124.477 219.864 M 230.229 219.029 C 228.706 220.552 230.825 226.897 233.375 228.448 C 236.576 230.394 242.277 230.414 244.206 228.485 L 245.271 227.419 L 244.101 226.374 C 243.115 225.492 242.42 225.289 239.662 225.077 C 235.583 224.762 235.093 224.496 234.213 222.119 C 232.854 218.444 231.704 217.553 230.229 219.029 M 284.962 220.861 C 286.864 224.32 283.074 228.043 280.914 224.838 C 279.717 223.062 279.758 222.503 281.249 220.252 C 282.685 218.084 283.51 218.219 284.962 220.861 M 103.136 221.419 C 104.29 223.953 103.292 226.02 101.793 224.2 C 100.631 222.79 100.56 222.128 101.462 221.131 C 102.337 220.164 102.583 220.206 103.136 221.419 M 233.136 221.419 C 233.391 221.979 233.6 222.974 233.6 223.629 C 233.6 225.204 234.687 225.6 239.004 225.6 C 242.014 225.6 242.47 225.702 243.478 226.601 L 244.6 227.602 L 243.656 228.401 C 242.444 229.427 237.616 229.52 235.228 228.565 C 232.941 227.649 230.393 222.881 231.383 221.37 C 232.19 220.138 232.557 220.148 233.136 221.419 M 263.136 221.419 C 264.367 224.121 263.219 226.402 261.73 224.211 C 260.625 222.585 260.583 222.103 261.462 221.131 C 262.337 220.164 262.583 220.206 263.136 221.419 M 71.075 226.163 L 72.195 227.127 L 71.322 228.925 C 70.175 231.285 67.695 233.271 67.138 232.275 C 66.523 231.176 63.838 230.028 60.321 229.361 C 53.896 228.142 53.339 226.804 58.843 225.808 C 64.109 224.854 69.744 225.018 71.075 226.163 M 113.321 226.663 L 114.56 227.303 L 113.685 228.012 C 110.949 230.227 103.124 228.951 104.06 226.442 C 104.489 225.29 110.966 225.445 113.321 226.663 M 155.79 226.431 C 158.445 227.424 158.346 227.737 155.055 228.754 C 150.226 230.245 143.113 227.703 147.341 225.997 C 148.993 225.331 153.463 225.56 155.79 226.431 M 273.321 226.663 L 274.56 227.303 L 273.687 228.01 C 270.763 230.378 261.721 228.519 264.1 226.039 C 264.787 225.322 271.624 225.785 273.321 226.663 M 73.21 236.418 C 73.796 237.513 73.553 239.8 72.851 239.8 C 71.646 239.8 70.354 237.443 71.031 236.477 C 71.801 235.378 72.641 235.356 73.21 236.418 M 84.019 241.478 L 85.3 242.555 L 84.15 243.476 C 81.857 245.311 74.4 244.203 74.4 242.027 C 74.4 241.184 74.972 240.942 77.6 240.672 C 81.694 240.251 82.714 240.379 84.019 241.478" /><path id="path2" fill="#fcfcfc" fill-rule="evenodd" stroke="none" d="M 161.96 12.753 C 159.093 13.021 158.003 13.625 157.995 14.949 C 157.977 17.621 158.352 17.504 149.264 17.684 C 139.404 17.879 138 18.363 138 21.564 C 138 22.215 137.496 22.311 133.158 22.49 C 127.693 22.715 127.616 22.76 127.606 25.7 L 127.6 27.6 L 122.82 27.6 C 119.205 27.6 117.962 27.733 117.72 28.146 C 117.544 28.446 116.793 29.002 116.052 29.381 C 115.288 29.772 114.514 30.575 114.264 31.235 C 113.852 32.327 113.686 32.4 111.612 32.405 C 108.469 32.413 107.6 32.717 107.6 33.807 C 107.6 35.967 105.035 37.6 101.64 37.6 C 97.999 37.6 97.6 37.884 97.6 40.48 L 97.6 42.4 L 95.7 42.406 C 90.808 42.422 88.441 43.529 88.116 45.952 L 87.895 47.6 L 86.121 47.6 C 83.62 47.6 82.8 48.139 82.8 49.781 C 82.8 51.911 82.461 52.4 80.983 52.4 C 78.2 52.4 77.6 52.93 77.6 55.39 L 77.6 57.6 L 75.247 57.6 C 72.627 57.6 72.417 57.845 72.405 60.9 L 72.4 62.4 L 70.633 62.4 C 67.789 62.4 67.6 62.577 67.6 65.243 L 67.6 67.6 L 65.243 67.6 C 62.577 67.6 62.4 67.789 62.4 70.633 L 62.4 72.4 L 60.9 72.405 C 57.845 72.417 57.6 72.627 57.6 75.247 L 57.6 77.6 L 55.39 77.6 C 52.931 77.6 52.4 78.2 52.4 80.979 C 52.4 82.385 51.783 82.783 49.58 82.795 C 48.075 82.803 47.6 83.523 47.6 85.797 L 47.6 87.834 L 45.855 88.301 C 44.043 88.785 43.999 88.846 42.856 92.428 C 42.605 93.214 42.4 94.699 42.4 95.728 L 42.4 97.6 L 40.48 97.6 C 37.884 97.6 37.6 97.999 37.6 101.64 C 37.6 105.035 35.967 107.6 33.807 107.6 C 32.747 107.6 32.414 108.473 32.405 111.267 C 32.4 113.017 32.308 113.18 30.928 113.867 C 30.118 114.27 29.319 114.87 29.153 115.2 C 27.734 118.018 27.6 118.695 27.6 123.061 L 27.6 127.6 L 25.424 127.6 C 22.52 127.6 22.469 127.766 22.403 137.5 C 22.402 137.775 22.048 138 21.619 138 C 18.356 138 17.88 139.364 17.684 149.264 C 17.504 158.366 17.627 157.978 14.909 157.995 C 12.504 158.009 12.6 156.27 12.6 199.782 C 12.6 242.181 12.562 241.367 14.586 241.789 C 15.144 241.905 16.05 242.093 16.6 242.208 L 17.6 242.415 L 17.6 249.43 C 17.6 259.093 18.198 261.248 21.026 261.779 L 22.4 262.036 L 22.447 265.918 C 22.522 272.083 22.565 272.177 25.302 272.32 L 27.6 272.44 L 27.6 277.2 C 27.6 280.798 27.733 282.038 28.146 282.28 C 28.446 282.456 29.002 283.207 29.381 283.948 C 29.772 284.712 30.575 285.486 31.235 285.736 C 32.327 286.148 32.4 286.314 32.405 288.388 C 32.413 291.531 32.717 292.4 33.807 292.4 C 35.967 292.4 37.6 294.965 37.6 298.36 C 37.6 302.001 37.884 302.4 40.48 302.4 L 42.4 302.4 L 42.4 304.272 C 42.4 305.301 42.605 306.786 42.856 307.572 C 43.999 311.154 44.043 311.215 45.855 311.699 C 47.577 312.16 47.6 312.189 47.6 313.909 C 47.6 316.38 48.144 317.2 49.781 317.2 C 51.911 317.2 52.4 317.539 52.4 319.017 C 52.4 321.8 52.93 322.4 55.39 322.4 L 57.6 322.4 L 57.6 324.753 C 57.6 327.373 57.845 327.583 60.9 327.595 L 62.4 327.6 L 62.4 329.367 C 62.4 332.211 62.577 332.4 65.243 332.4 L 67.6 332.4 L 67.6 334.757 C 67.6 337.423 67.789 337.6 70.633 337.6 L 72.4 337.6 L 72.405 339.1 C 72.417 342.155 72.627 342.4 75.247 342.4 L 77.6 342.4 L 77.6 344.61 C 77.6 347.07 78.2 347.6 80.983 347.6 C 82.461 347.6 82.8 348.089 82.8 350.219 C 82.8 351.861 83.62 352.4 86.123 352.4 C 87.874 352.4 87.901 352.42 88.145 353.948 C 88.52 356.29 91.2 357.584 95.7 357.595 L 97.6 357.6 L 97.6 359.371 C 97.6 361.933 98.246 362.4 101.789 362.4 C 105.04 362.4 107.6 364.078 107.6 366.208 C 107.6 367.304 108.935 367.726 111.836 367.548 C 113.57 367.441 113.715 367.51 114.211 368.691 C 114.508 369.398 115.322 370.246 116.07 370.628 C 116.801 371.002 117.544 371.554 117.72 371.854 C 117.962 372.267 119.205 372.4 122.82 372.4 L 127.6 372.4 L 127.606 374.3 C 127.616 377.24 127.694 377.285 133.15 377.51 L 137.984 377.709 L 138.232 379.028 C 138.751 381.797 140.959 382.4 150.57 382.4 L 157.585 382.4 L 157.792 383.4 C 158.704 387.791 154.615 387.4 199.6 387.4 C 244.871 387.4 241.63 387.69 242.088 383.6 L 242.2 382.6 L 249.8 382.38 C 259.286 382.105 261.6 381.383 261.6 378.698 C 261.6 377.695 262.005 377.605 267 377.496 C 272.324 377.38 272.4 377.339 272.4 374.576 L 272.4 372.4 L 277.18 372.4 C 280.795 372.4 282.038 372.267 282.28 371.854 C 282.456 371.554 283.207 370.998 283.948 370.619 C 284.712 370.228 285.486 369.425 285.736 368.765 C 286.148 367.673 286.314 367.6 288.388 367.595 C 291.531 367.587 292.4 367.283 292.4 366.193 C 292.4 364.033 294.965 362.4 298.36 362.4 C 302.001 362.4 302.4 362.116 302.4 359.52 L 302.4 357.6 L 304.272 357.6 C 305.301 357.6 306.786 357.395 307.572 357.144 C 311.154 356.001 311.215 355.957 311.699 354.145 L 312.166 352.4 L 314.203 352.4 C 316.477 352.4 317.197 351.925 317.205 350.42 C 317.217 348.217 317.615 347.6 319.021 347.6 C 321.8 347.6 322.4 347.069 322.4 344.61 L 322.4 342.4 L 324.753 342.4 C 327.373 342.4 327.583 342.155 327.595 339.1 L 327.6 337.6 L 329.367 337.6 C 332.211 337.6 332.4 337.423 332.4 334.757 L 332.4 332.4 L 334.757 332.4 C 337.423 332.4 337.6 332.211 337.6 329.367 L 337.6 327.6 L 339.1 327.595 C 342.155 327.583 342.4 327.373 342.4 324.753 L 342.4 322.4 L 344.61 322.4 C 347.069 322.4 347.6 321.8 347.6 319.021 C 347.6 317.615 348.217 317.217 350.42 317.205 C 351.929 317.197 352.4 316.476 352.4 314.171 L 352.4 312.102 L 353.948 311.855 C 356.29 311.48 357.584 308.8 357.595 304.3 L 357.6 302.4 L 359.52 302.4 C 362.116 302.4 362.4 302.001 362.4 298.36 C 362.4 294.965 364.033 292.4 366.193 292.4 C 367.283 292.4 367.587 291.531 367.595 288.388 C 367.6 286.314 367.673 286.148 368.765 285.736 C 369.425 285.486 370.228 284.712 370.619 283.948 C 370.998 283.207 371.554 282.456 371.854 282.28 C 372.267 282.038 372.4 280.798 372.4 277.2 L 372.4 272.44 L 374.698 272.32 C 377.437 272.177 377.478 272.085 377.553 265.887 C 377.593 262.532 377.7 261.945 378.3 261.766 C 381.812 260.715 382.396 258.967 382.398 249.508 L 382.4 242.415 L 383.4 242.208 C 387.792 241.296 387.4 245.435 387.4 200 C 387.4 157.834 387.438 158.633 385.414 158.211 C 384.856 158.095 383.95 157.907 383.4 157.792 L 382.4 157.585 L 382.4 150.57 C 382.4 140.907 381.802 138.752 378.974 138.221 C 378.218 138.08 377.598 137.747 377.597 137.482 C 377.528 127.757 377.48 127.6 374.576 127.6 L 372.4 127.6 L 372.4 122.82 C 372.4 119.205 372.267 117.962 371.854 117.72 C 371.554 117.544 370.998 116.793 370.619 116.052 C 370.228 115.288 369.425 114.514 368.765 114.264 C 367.673 113.852 367.6 113.686 367.595 111.612 C 367.587 108.469 367.283 107.6 366.193 107.6 C 364.033 107.6 362.4 105.035 362.4 101.64 C 362.4 97.999 362.116 97.6 359.52 97.6 L 357.6 97.6 L 357.595 95.7 C 357.584 91.2 356.29 88.52 353.948 88.145 L 352.4 87.898 L 352.4 85.829 C 352.4 83.524 351.929 82.803 350.42 82.795 C 348.217 82.783 347.6 82.385 347.6 80.979 C 347.6 78.2 347.069 77.6 344.61 77.6 L 342.4 77.6 L 342.4 75.247 C 342.4 72.627 342.155 72.417 339.1 72.405 L 337.6 72.4 L 337.6 70.633 C 337.6 67.789 337.423 67.6 334.757 67.6 L 332.4 67.6 L 332.4 65.243 C 332.4 62.577 332.211 62.4 329.367 62.4 L 327.6 62.4 L 327.595 60.9 C 327.583 57.845 327.373 57.6 324.753 57.6 L 322.4 57.6 L 322.4 55.39 C 322.4 52.931 321.8 52.4 319.021 52.4 C 317.615 52.4 317.217 51.783 317.205 49.58 C 317.197 48.071 316.476 47.6 314.171 47.6 L 312.102 47.6 L 311.855 46.052 C 311.48 43.71 308.8 42.416 304.3 42.405 L 302.4 42.4 L 302.4 40.48 C 302.4 37.884 302.001 37.6 298.36 37.6 C 294.965 37.6 292.4 35.967 292.4 33.807 C 292.4 32.717 291.531 32.413 288.388 32.405 C 286.314 32.4 286.148 32.327 285.736 31.235 C 285.486 30.575 284.712 29.772 283.948 29.381 C 283.207 29.002 282.456 28.446 282.28 28.146 C 282.038 27.733 280.795 27.6 277.18 27.6 L 272.4 27.6 L 272.4 25.424 C 272.4 22.478 272.485 22.504 262.718 22.407 C 262.26 22.402 261.952 21.949 261.779 21.026 C 261.248 18.198 259.093 17.6 249.43 17.6 L 242.415 17.6 L 242.208 16.6 C 241.299 12.225 245.169 12.614 202 12.556 C 181.43 12.528 163.412 12.617 161.96 12.753 M 67.8 178.98 C 71.411 179.292 73.007 179.875 75.021 181.618 C 76.026 182.488 77.036 183.2 77.264 183.2 C 78.688 183.2 80.564 184.669 81.311 186.371 C 81.752 187.377 82.794 188.787 83.626 189.505 C 88.582 193.781 88.313 216.389 83.258 220.462 C 82.618 220.978 81.721 222.262 81.263 223.315 C 80.543 224.973 80.141 225.358 78.272 226.185 C 75.237 227.527 74.324 230.635 75.741 234.8 C 76.987 238.464 76.916 238.4 79.751 238.4 C 84.245 238.4 88.4 240.479 88.4 242.727 C 88.4 243.721 85.198 245.951 83.38 246.224 C 76.999 247.181 72.265 245.735 69.381 241.95 C 68.313 240.547 67.204 239.255 66.917 239.079 C 66.136 238.598 64.855 235.884 64.571 234.108 C 64.233 231.993 63.486 231.629 58.59 231.199 C 54.091 230.804 50.676 229.663 49.954 228.314 C 49.726 227.888 48.413 227.034 47.035 226.416 C 44.82 225.422 44.427 225.068 43.623 223.346 C 43.123 222.276 42.118 220.903 41.388 220.296 C 36.874 216.54 36.722 194.577 41.18 190.043 C 41.96 189.25 43.06 187.7 43.623 186.6 C 44.493 184.903 44.956 184.476 46.685 183.782 C 47.805 183.332 49.449 182.307 50.338 181.504 C 52.228 179.796 54.127 179.193 58.8 178.815 C 62.133 178.546 62.941 178.56 67.8 178.98 M 232.082 180.016 C 234.347 180.645 235.2 182.017 235.2 185.03 C 235.2 188.121 235.164 188.096 240.211 188.418 C 244.641 188.701 245.999 189.267 246.783 191.158 C 248.028 194.165 245.976 196.155 241.469 196.308 C 239.671 196.37 237.525 196.624 236.7 196.874 L 235.2 197.328 L 235.2 207.432 C 235.2 222.461 235.475 223.281 240.621 223.623 C 245.538 223.949 247.635 225.818 246.408 228.781 C 245.396 231.223 238.24 232.178 232.882 230.587 C 230.805 229.97 230.555 229.738 228.39 226.4 C 227.748 225.41 226.831 224.117 226.354 223.528 C 224.883 221.712 224.431 217.889 224.415 207.144 L 224.4 197.288 L 222.2 195.053 C 219.618 192.429 219.616 192.421 221.3 190.938 C 223.975 188.58 224.4 187.728 224.4 184.715 C 224.4 180.148 226.948 178.59 232.082 180.016 M 57.6 186.75 C 57.05 186.93 55.944 187.691 55.143 188.439 C 54.341 189.188 53.125 190.22 52.44 190.732 C 51.595 191.366 51.052 192.234 50.748 193.439 C 50.503 194.415 49.786 195.862 49.156 196.655 C 46.38 200.149 46.429 210.892 49.233 213.43 C 49.665 213.821 50.298 215.101 50.639 216.274 C 51.047 217.677 51.612 218.645 52.291 219.104 C 52.859 219.487 54.112 220.543 55.077 221.451 C 58.288 224.471 66.523 224.42 70.149 221.357 C 73.501 218.525 73.893 218.049 74.345 216.254 C 74.582 215.311 75.317 213.859 75.978 213.028 C 78.628 209.693 78.639 200.321 75.997 196.996 C 75.326 196.152 74.587 194.709 74.356 193.791 C 73.934 192.115 72.353 190 71.522 190 C 71.277 190 70.38 189.245 69.527 188.321 L 67.978 186.643 L 63.289 186.532 C 60.71 186.471 58.15 186.569 57.6 186.75 M 162.075 189.254 C 163.639 189.589 164.608 190.114 165.795 191.269 C 166.678 192.128 168.03 193.236 168.8 193.73 C 171.692 195.588 172.066 198.218 171.916 215.661 C 171.808 228.154 171.746 229.176 171.052 229.943 C 169.198 231.991 165.372 231.89 163.381 229.742 C 162.496 228.787 162.414 228.772 161.453 229.402 C 156.855 232.415 145.236 231.821 142.836 228.45 C 142.346 227.763 141.721 227.2 141.448 227.2 C 136.371 227.2 136.938 210.91 142.094 208.63 C 143.262 208.113 144.794 207.153 145.498 206.496 C 147.085 205.013 149.22 204.461 155.381 203.941 C 163.693 203.241 164.541 202.651 161.39 199.766 C 160.626 199.065 160 198.282 160 198.026 C 160 195.913 149.804 196.027 148.034 198.159 C 146.959 199.454 142.427 199.808 141.303 198.685 C 139.36 196.742 141.044 191.749 144.2 190.095 C 146.695 188.788 157.526 188.278 162.075 189.254 M 205.918 189.413 C 208.694 190.237 210.857 192.828 214.087 199.2 C 214.977 200.954 215.003 201.35 215.119 214.648 L 215.239 228.296 L 213.989 229.348 C 212.105 230.933 207.817 230.898 206.088 229.282 L 204.891 228.164 L 204.682 215.382 C 204.394 197.797 204.169 197.025 199.198 196.578 C 195.063 196.205 193.762 196.793 191.637 199.993 L 190 202.457 L 190 214.998 L 190 227.538 L 188.769 228.769 C 188.092 229.446 187.327 230.011 187.069 230.024 C 186.811 230.037 185.7 230.197 184.6 230.379 C 179.304 231.255 179.2 230.861 179.2 210 C 179.2 188.008 178.878 188.84 187 189.867 C 191.636 190.454 192.048 190.431 194.6 189.45 C 196.749 188.624 203.19 188.603 205.918 189.413 M 327.425 190.086 C 328.539 190.664 329.67 191.402 329.938 191.726 C 331.321 193.392 332.709 193.39 334.33 191.72 C 336.849 189.124 347.208 187.763 350.463 189.6 C 352.719 190.873 355.938 194.298 356.351 195.864 C 357.954 201.953 358.403 206.635 358.402 217.271 L 358.4 227.942 L 356.977 229.114 C 354.891 230.834 352.734 231.393 351.214 230.607 C 348.881 229.401 348.801 228.89 348.79 215.12 C 348.785 208.234 348.603 201.79 348.387 200.8 C 348.171 199.81 347.905 198.61 347.798 198.133 C 347.22 195.58 338.352 195.933 337.1 198.559 C 336.769 199.254 336.006 200.406 335.406 201.119 L 334.315 202.416 L 334.377 214.915 L 334.439 227.413 L 333.314 228.491 C 330.728 230.968 327.297 231.377 325.36 229.44 L 324 228.08 L 324 215.749 C 324 201.594 323.503 197.463 321.748 197.023 C 316.396 195.679 313.647 196.465 311.54 199.94 L 310 202.48 L 310 215.009 L 310 227.538 L 308.769 228.769 C 308.092 229.446 307.327 230.011 307.069 230.024 C 306.811 230.037 305.7 230.197 304.6 230.379 C 299.304 231.255 299.2 230.861 299.2 210 C 299.2 188.028 298.741 189.168 307.432 189.574 C 310.594 189.722 312.944 189.634 314.232 189.318 C 317.838 188.436 325.057 188.856 327.425 190.086 M 100.651 189.793 C 104.431 190.915 104.308 190.449 104.487 204.4 C 104.714 222.133 105.248 223.591 111.52 223.598 C 114.677 223.601 116.622 222.295 118.736 218.753 C 119.573 217.351 119.6 216.904 119.6 204.622 L 119.6 191.938 L 120.769 190.769 C 122.585 188.954 127.976 189.289 129.388 191.305 C 130.308 192.618 130.308 227.382 129.388 228.695 C 128.204 230.387 122.987 230.96 119.522 229.78 C 117.776 229.185 117.631 229.197 115.951 230.08 C 114.384 230.903 113.652 231 109 231 C 102.714 231 101.305 230.483 99.329 227.449 C 98.63 226.376 97.496 224.918 96.808 224.208 C 94.504 221.831 94.302 220.437 94.098 205.503 L 93.914 192.006 L 95.317 190.603 C 96.887 189.033 97.684 188.912 100.651 189.793 M 260.651 189.793 C 264.431 190.915 264.308 190.449 264.487 204.4 C 264.714 222.133 265.248 223.591 271.52 223.598 C 274.677 223.601 276.622 222.295 278.736 218.753 C 279.573 217.351 279.6 216.904 279.6 204.622 L 279.6 191.938 L 280.824 190.714 C 282.467 189.072 287.006 189.281 288.89 191.086 L 290 192.15 L 290 210 L 290 227.85 L 288.89 228.914 C 287.373 230.367 283.185 230.801 279.897 229.846 C 277.694 229.205 277.605 229.21 275.922 230.095 C 271.21 232.571 261.717 231.114 259.4 227.558 C 258.74 226.546 257.541 224.988 256.737 224.098 C 254.449 221.567 254.227 219.853 254.212 204.668 L 254.2 191.537 L 255.506 190.368 C 256.987 189.044 257.818 188.951 260.651 189.793 M 153.549 211.882 C 152.937 211.976 151.982 212.687 151.258 213.588 C 150.575 214.437 149.391 215.339 148.627 215.591 C 145.151 216.738 146.762 222.297 150.823 223.168 C 155.417 224.153 157.409 223.817 159.517 221.7 C 160.557 220.655 161.762 219.603 162.193 219.363 C 163.166 218.822 163.637 213.208 162.795 212.194 C 162.317 211.618 156.531 211.422 153.549 211.882" /><path id="path3" fill="#aeaed5" fill-rule="evenodd" stroke="none" d="M 58.8 178.815 C 54.127 179.193 52.228 179.796 50.338 181.504 C 49.449 182.307 47.805 183.332 46.685 183.782 C 44.956 184.476 44.493 184.903 43.623 186.6 C 43.06 187.7 41.96 189.25 41.18 190.043 C 36.722 194.577 36.874 216.54 41.388 220.296 C 42.118 220.903 43.123 222.276 43.623 223.346 C 44.427 225.068 44.82 225.422 47.035 226.416 C 48.413 227.034 49.726 227.888 49.954 228.314 C 50.676 229.663 54.091 230.804 58.59 231.199 C 63.486 231.629 64.233 231.993 64.571 234.108 C 64.855 235.884 66.136 238.598 66.917 239.079 C 67.204 239.255 68.313 240.547 69.381 241.95 C 72.265 245.735 76.999 247.181 83.38 246.224 C 85.198 245.951 88.4 243.721 88.4 242.727 C 88.4 240.479 84.245 238.4 79.751 238.4 C 76.916 238.4 76.987 238.464 75.741 234.8 C 74.324 230.635 75.237 227.527 78.272 226.185 C 80.141 225.358 80.543 224.973 81.263 223.315 C 81.721 222.262 82.618 220.978 83.258 220.462 C 88.313 216.389 88.582 193.781 83.626 189.505 C 82.794 188.787 81.752 187.377 81.311 186.371 C 80.564 184.669 78.688 183.2 77.264 183.2 C 77.036 183.2 76.026 182.488 75.021 181.618 C 73.007 179.875 71.411 179.292 67.8 178.98 C 62.941 178.56 62.133 178.546 58.8 178.815 M 225.569 180.769 C 224.501 181.837 224.4 182.179 224.4 184.715 C 224.4 187.728 223.975 188.58 221.3 190.938 C 219.616 192.421 219.618 192.429 222.2 195.053 L 224.4 197.288 L 224.415 207.144 C 224.431 217.889 224.883 221.712 226.354 223.528 C 226.831 224.117 227.748 225.41 228.39 226.4 C 230.555 229.738 230.805 229.97 232.882 230.587 C 238.24 232.178 245.396 231.223 246.408 228.781 C 247.635 225.818 245.538 223.949 240.621 223.623 C 235.475 223.281 235.2 222.461 235.2 207.432 L 235.2 197.328 L 236.7 196.874 C 237.525 196.624 239.671 196.37 241.469 196.308 C 245.976 196.155 248.028 194.165 246.783 191.158 C 245.999 189.267 244.641 188.701 240.211 188.418 C 235.164 188.096 235.2 188.121 235.2 185.03 C 235.2 180.12 228.973 177.365 225.569 180.769 M 68.826 181.009 C 71.633 182 72.152 182.528 71.309 183.538 C 69.906 185.219 56.357 185.427 54.134 183.801 C 50.655 181.257 62.921 178.926 68.826 181.009 M 228.7 182.252 C 229.513 182.47 229.6 182.738 229.6 185.015 L 229.6 187.536 L 230.9 187.8 C 231.615 187.946 233.152 188.41 234.315 188.832 C 235.733 189.347 237.475 189.6 239.601 189.6 C 242.578 189.6 242.859 189.676 244.186 190.841 C 246.861 193.19 244.994 195.2 240.136 195.2 C 238.014 195.2 236.294 195.484 234.267 196.17 C 232.69 196.703 231.04 197.2 230.6 197.274 C 229.838 197.403 229.789 197.817 229.559 206.005 C 229.316 214.672 228.867 217.6 227.781 217.6 C 227.289 217.6 227.2 216.098 227.2 207.757 L 227.2 197.913 L 225.147 195.333 C 222.794 192.376 222.802 192.245 225.552 189.139 C 227.128 187.359 227.2 187.162 227.2 184.639 C 227.2 183.187 227.335 182.002 227.5 182.005 C 227.665 182.008 228.205 182.119 228.7 182.252 M 50.708 185.628 C 52.469 186.242 52.603 187.064 51.201 188.66 C 50.537 189.416 49.455 191.062 48.796 192.317 C 48.138 193.573 47.248 195.05 46.818 195.6 C 44.913 198.042 45.251 212.548 47.273 215.092 C 47.932 215.921 48.916 217.54 49.46 218.69 C 50.004 219.839 50.901 221.136 51.455 221.572 C 52.739 222.581 52.608 224.054 51.2 224.444 C 47.904 225.355 45.616 224.172 44.996 221.235 C 44.815 220.378 43.983 219.145 42.762 217.924 C 37.946 213.107 38.213 195.324 43.156 191.691 C 44.002 191.069 44.535 190.217 44.842 189 C 45.66 185.752 47.7 184.579 50.708 185.628 M 78.874 186.3 C 79.436 186.905 80.011 187.886 80.151 188.48 C 80.291 189.073 81.281 190.56 82.352 191.784 C 85.091 194.914 85.402 196.29 85.389 205.2 C 85.376 213.705 84.969 215.229 82.002 217.893 C 80.891 218.89 80.237 219.894 79.947 221.045 C 79.393 223.244 78.109 224.411 75.939 224.687 C 73.87 224.95 73.203 225.402 73.191 226.549 C 73.18 227.68 71.75 230.787 70.753 231.849 C 69.84 232.822 70.527 234 72.008 234 C 72.538 234 73.122 234.761 73.993 236.584 C 75.531 239.809 75.441 239.756 79.888 240.013 C 87.424 240.45 87.702 244.8 80.194 244.8 C 75.541 244.8 69.2 240.049 69.2 236.561 C 69.2 236.131 68.705 235.314 68.1 234.746 C 67.495 234.178 66.676 233.237 66.28 232.655 C 65.259 231.154 63.019 230.14 60 229.812 C 57.615 229.553 53.2 227.984 53.2 227.396 C 53.2 225.654 54.169 225.417 63.8 224.808 C 71.746 224.306 72.4 224.195 72.4 223.35 C 72.4 223.001 72.839 222.37 73.375 221.948 C 73.912 221.526 74.835 220.19 75.427 218.98 C 76.02 217.769 77.016 216.135 77.642 215.347 C 79.647 212.825 79.993 197.705 78.101 195.329 C 77.607 194.708 76.745 193.339 76.187 192.286 C 75.629 191.233 74.548 189.681 73.786 188.837 C 72.199 187.081 72.161 186.927 73.062 185.931 C 74.176 184.701 77.587 184.917 78.874 186.3 M 69.527 188.321 C 70.38 189.245 71.277 190 71.522 190 C 72.353 190 73.934 192.115 74.356 193.791 C 74.587 194.709 75.326 196.152 75.997 196.996 C 78.639 200.321 78.628 209.693 75.978 213.028 C 75.317 213.859 74.582 215.311 74.345 216.254 C 73.893 218.049 73.501 218.525 70.149 221.357 C 66.523 224.42 58.288 224.471 55.077 221.451 C 54.112 220.543 52.859 219.487 52.291 219.104 C 51.612 218.645 51.047 217.677 50.639 216.274 C 50.298 215.101 49.665 213.821 49.233 213.43 C 46.429 210.892 46.38 200.149 49.156 196.655 C 49.786 195.862 50.503 194.415 50.748 193.439 C 51.052 192.234 51.595 191.366 52.44 190.732 C 53.125 190.22 54.341 189.188 55.143 188.439 C 57.131 186.583 57.89 186.405 63.289 186.532 L 67.978 186.643 L 69.527 188.321 M 146.6 189.174 C 139.396 190.928 137.811 200.556 144.948 199.21 C 146.392 198.937 147.781 198.464 148.034 198.159 C 149.804 196.027 160 195.913 160 198.026 C 160 198.282 160.626 199.065 161.39 199.766 C 164.541 202.651 163.693 203.241 155.381 203.941 C 149.22 204.461 147.085 205.013 145.498 206.496 C 144.794 207.153 143.262 208.113 142.094 208.63 C 136.938 210.91 136.371 227.2 141.448 227.2 C 141.721 227.2 142.346 227.763 142.836 228.45 C 145.236 231.821 156.855 232.415 161.453 229.402 C 162.414 228.772 162.496 228.787 163.381 229.742 C 165.372 231.89 169.198 231.991 171.052 229.943 C 171.746 229.176 171.808 228.154 171.916 215.661 C 172.066 198.218 171.692 195.588 168.8 193.73 C 168.03 193.236 166.678 192.128 165.795 191.269 C 163.492 189.028 152.244 187.8 146.6 189.174 M 194.6 189.45 C 192.048 190.431 191.636 190.454 187 189.867 C 178.878 188.84 179.2 188.008 179.2 210 C 179.2 230.861 179.304 231.255 184.6 230.379 C 185.7 230.197 186.811 230.037 187.069 230.024 C 187.327 230.011 188.092 229.446 188.769 228.769 L 190 227.538 L 190 214.998 L 190 202.457 L 191.637 199.993 C 193.762 196.793 195.063 196.205 199.198 196.578 C 204.169 197.025 204.394 197.797 204.682 215.382 L 204.891 228.164 L 206.088 229.282 C 207.817 230.898 212.105 230.933 213.989 229.348 L 215.239 228.296 L 215.119 214.648 C 215.003 201.35 214.977 200.954 214.087 199.2 C 210.857 192.828 208.694 190.237 205.918 189.413 C 203.19 188.603 196.749 188.624 194.6 189.45 M 314.232 189.318 C 312.944 189.634 310.594 189.722 307.432 189.574 C 298.741 189.168 299.2 188.028 299.2 210 C 299.2 230.861 299.304 231.255 304.6 230.379 C 305.7 230.197 306.811 230.037 307.069 230.024 C 307.327 230.011 308.092 229.446 308.769 228.769 L 310 227.538 L 310 215.009 L 310 202.48 L 311.54 199.94 C 313.647 196.465 316.396 195.679 321.748 197.023 C 323.503 197.463 324 201.594 324 215.749 L 324 228.08 L 325.36 229.44 C 327.297 231.377 330.728 230.968 333.314 228.491 L 334.439 227.413 L 334.377 214.915 L 334.315 202.416 L 335.406 201.119 C 336.006 200.406 336.769 199.254 337.1 198.559 C 338.352 195.933 347.22 195.58 347.798 198.133 C 347.905 198.61 348.171 199.81 348.387 200.8 C 348.603 201.79 348.785 208.234 348.79 215.12 C 348.801 228.89 348.881 229.401 351.214 230.607 C 352.734 231.393 354.891 230.834 356.977 229.114 L 358.4 227.942 L 358.402 217.271 C 358.403 206.635 357.954 201.953 356.351 195.864 C 355.938 194.298 352.719 190.873 350.463 189.6 C 347.208 187.763 336.849 189.124 334.33 191.72 C 332.709 193.39 331.321 193.392 329.938 191.726 C 327.913 189.286 319.583 188.009 314.232 189.318 M 95.317 190.603 L 93.914 192.006 L 94.098 205.503 C 94.302 220.437 94.504 221.831 96.808 224.208 C 97.496 224.918 98.63 226.376 99.329 227.449 C 101.305 230.483 102.714 231 109 231 C 113.652 231 114.384 230.903 115.951 230.08 C 117.631 229.197 117.776 229.185 119.522 229.78 C 122.987 230.96 128.204 230.387 129.388 228.695 C 130.308 227.382 130.308 192.618 129.388 191.305 C 127.976 189.289 122.585 188.954 120.769 190.769 L 119.6 191.938 L 119.6 204.622 C 119.6 216.904 119.573 217.351 118.736 218.753 C 116.622 222.295 114.677 223.601 111.52 223.598 C 105.248 223.591 104.714 222.133 104.487 204.4 C 104.308 190.449 104.431 190.915 100.651 189.793 C 97.684 188.912 96.887 189.033 95.317 190.603 M 255.506 190.368 L 254.2 191.537 L 254.212 204.668 C 254.227 219.853 254.449 221.567 256.737 224.098 C 257.541 224.988 258.74 226.546 259.4 227.558 C 261.717 231.114 271.21 232.571 275.922 230.095 C 277.605 229.21 277.694 229.205 279.897 229.846 C 283.185 230.801 287.373 230.367 288.89 228.914 L 290 227.85 L 290 210 L 290 192.15 L 288.89 191.086 C 287.006 189.281 282.467 189.072 280.824 190.714 L 279.6 191.938 L 279.6 204.622 C 279.6 216.904 279.573 217.351 278.736 218.753 C 276.622 222.295 274.677 223.601 271.52 223.598 C 265.248 223.591 264.714 222.133 264.487 204.4 C 264.308 190.449 264.431 190.915 260.651 189.793 C 257.818 188.951 256.987 189.044 255.506 190.368 M 160.666 191.061 C 162.955 191.699 163.458 192.125 163.662 193.6 C 163.78 194.457 164.098 194.657 165.886 195 C 170.125 195.814 170.414 196.958 170.691 214.03 C 170.922 228.2 170.914 228.256 168.708 229.597 C 165.358 231.635 161.643 225.166 163.575 220.659 C 164.188 219.229 164.4 217.879 164.4 215.411 C 164.4 210.453 164.35 210.414 156.83 209.552 C 146.874 208.412 147.074 207.17 157.468 205.574 C 164.283 204.528 165.18 203.658 164.037 199.2 C 163.839 198.43 163.569 197.313 163.436 196.718 C 163.085 195.149 161.325 194.805 153.626 194.802 C 146.949 194.8 145.2 194.372 145.2 192.739 C 145.2 190.539 154.983 189.478 160.666 191.061 M 204.169 190.961 C 207.054 192.167 210.969 196.81 210.618 198.611 C 210.533 199.045 210.241 200.703 209.969 202.295 C 209.227 206.631 207.224 207.921 207.206 204.074 C 207.203 203.344 206.975 202.354 206.7 201.874 C 206.425 201.393 205.742 199.831 205.183 198.403 C 204.007 195.403 203.186 194.815 200.16 194.806 C 197.083 194.797 193.611 193.353 194.235 192.343 C 195.298 190.624 201.347 189.782 204.169 190.961 M 324.8 191.252 C 325.57 191.719 326.306 192.267 326.436 192.471 C 326.567 192.675 328.366 193.54 330.436 194.394 C 335.773 196.596 335.907 196.933 332.749 200.222 L 330.212 202.863 L 330.06 215.245 L 329.908 227.627 L 328.718 228.243 C 326.107 229.593 326 229.093 326 215.544 C 326 197.728 325.321 195.736 318.886 194.682 C 314.688 193.994 312.759 193.069 313.655 192.174 C 315.493 190.336 322.353 189.768 324.8 191.252 M 348.8 191.25 C 349.57 191.716 350.341 192.339 350.513 192.636 C 350.685 192.932 351.471 193.481 352.26 193.855 C 355.216 195.258 355.197 195.136 355.199 212.273 L 355.2 227.546 L 354.038 228.373 C 351.074 230.484 350.923 229.885 350.671 215 C 350.353 196.216 350.079 195.311 344.534 194.75 C 339.441 194.236 336.615 193.092 338.072 192.136 C 340.813 190.335 346.51 189.865 348.8 191.25 M 100 205.425 L 100.2 218.593 L 101.4 218.796 C 102.406 218.967 102.803 219.413 103.861 221.562 C 105.377 224.642 105.481 224.708 109.68 225.232 C 117.003 226.147 116.767 229.488 109.368 229.64 C 104.683 229.737 99.223 225.331 99.194 221.431 C 99.186 220.407 98.803 219.816 97.939 219.498 C 96.736 219.056 96.4 215.595 96.4 203.66 C 96.4 191.05 96.43 190.884 98.558 191.751 L 99.8 192.258 L 100 205.425 M 260 205.425 L 260.2 218.593 L 261.4 218.796 C 262.406 218.967 262.803 219.413 263.861 221.562 C 265.377 224.642 265.481 224.708 269.68 225.232 C 277.125 226.162 276.746 229.594 269.2 229.582 C 264.471 229.575 259.2 225.248 259.2 221.374 C 259.2 220.87 258.757 220.14 258.205 219.733 C 256.69 218.617 256.4 216.001 256.4 203.425 C 256.4 191.067 256.434 190.885 258.558 191.751 L 259.8 192.258 L 260 205.425 M 186.051 192.949 C 191.398 194.94 191.568 199.331 186.389 201.65 L 184.8 202.361 L 184.8 214.973 L 184.8 227.585 L 183.801 227.836 C 181.506 228.411 181.6 229.168 181.6 210.079 C 181.6 200.429 181.72 192.413 181.867 192.267 C 182.336 191.797 183.441 191.977 186.051 192.949 M 308.064 192.803 C 311.806 193.864 310.629 200.046 306.366 201.72 L 304.8 202.336 L 304.8 214.925 C 304.8 228.478 304.874 228 302.767 228 C 302.022 228 302 227.477 302 209.943 L 302 191.886 L 304.3 192.137 C 305.565 192.275 307.259 192.574 308.064 192.803 M 124 204.806 L 124 217.211 L 125.298 218.371 C 126.527 219.469 126.595 219.678 126.598 222.334 C 126.603 228.523 121.404 229.899 119.469 224.22 L 118.866 222.451 L 120.633 219.816 L 122.4 217.181 L 122.4 204.791 C 122.4 192.667 122.417 192.4 123.2 192.4 C 123.983 192.4 124 192.667 124 204.806 M 283.6 204.973 C 283.6 217.218 283.621 217.553 284.404 217.801 C 287.011 218.629 287.38 224.857 284.936 226.779 C 282.776 228.478 280.612 227.435 279.447 224.134 L 278.868 222.491 L 280.634 219.858 L 282.4 217.225 L 282.4 204.813 C 282.4 194.046 282.48 192.4 283 192.4 C 283.521 192.4 283.6 194.064 283.6 204.973 M 148.4 211.835 C 148.4 212.361 148.051 212.959 147.604 213.198 C 146.027 214.042 145.482 215.87 145.694 219.603 C 145.972 224.466 146.212 224.8 149.435 224.8 C 152.639 224.8 157.283 225.815 158.467 226.773 L 159.346 227.486 L 158.368 228.127 C 154.41 230.72 146.665 230.095 144.65 227.02 C 144.282 226.459 143.661 226 143.269 226 C 139.554 226 138.067 215.7 141.191 211.6 C 142.693 209.63 148.4 209.816 148.4 211.835 M 162.795 212.194 C 163.637 213.208 163.166 218.822 162.193 219.363 C 161.762 219.603 160.557 220.655 159.517 221.7 C 157.409 223.817 155.417 224.153 150.823 223.168 C 146.762 222.297 145.151 216.738 148.627 215.591 C 149.391 215.339 150.575 214.437 151.258 213.588 C 152.662 211.84 153.02 211.744 158.451 211.66 C 161.424 211.614 162.414 211.735 162.795 212.194 M 232.943 219.3 C 233.251 219.795 233.823 221.063 234.213 222.119 C 235.093 224.496 235.583 224.762 239.662 225.077 C 242.42 225.289 243.115 225.492 244.101 226.374 L 245.271 227.419 L 244.206 228.485 C 242.277 230.414 236.576 230.394 233.375 228.448 C 231.878 227.538 229.6 223.091 229.6 221.079 C 229.6 218.627 231.795 217.459 232.943 219.3" /><path id="path4" fill="#8484c4" fill-rule="evenodd" stroke="none" d="M 58.933 180.98 C 53.955 182.103 53.77 183.08 58.353 184.032 C 62.502 184.894 71.485 183.676 70.171 182.43 C 68.64 180.978 62.47 180.182 58.933 180.98 M 65.68 181.643 C 68.645 182.262 68.794 182.624 66.332 183.227 C 63.736 183.864 60.791 183.861 58.449 183.221 C 54.436 182.123 61.059 180.678 65.68 181.643 M 75.5 186.263 C 73.837 186.953 73.636 187.547 74.732 188.538 C 75.134 188.902 75.884 190.098 76.397 191.194 C 76.911 192.291 77.672 193.296 78.088 193.428 C 79.412 193.848 79.6 195.416 79.6 206.015 L 79.6 216.377 L 78.359 216.699 C 77.392 216.949 77.001 217.363 76.582 218.581 C 76.287 219.44 75.656 220.669 75.179 221.313 C 74.198 222.641 74.541 223.3 76.444 223.744 C 77.789 224.057 78.649 223.128 78.985 221 C 79.124 220.12 79.327 218.815 79.437 218.1 C 79.615 216.936 79.775 216.8 80.956 216.8 C 86.415 216.8 86.939 194.187 81.517 192.586 C 80.155 192.184 79.843 191.613 79.394 188.698 C 79.194 187.398 77.898 185.559 77.225 185.621 C 77.101 185.632 76.325 185.921 75.5 186.263 M 46.96 186.306 C 46.164 186.838 45.6 188.322 45.6 189.885 C 45.6 191.809 44.717 193.11 43.301 193.274 C 40.822 193.561 40.2 195.912 40.2 205 C 40.2 214.189 40.716 216.043 43.536 216.983 C 45.126 217.513 45.411 217.975 45.748 220.571 C 46.166 223.785 47.218 224.505 49.877 223.394 L 51.328 222.787 L 50.484 221.89 C 50.02 221.396 49.19 219.972 48.639 218.726 C 47.894 217.042 47.401 216.427 46.718 216.33 C 44.527 216.02 44.458 193.973 46.647 193.424 C 47.278 193.265 47.942 192.49 48.642 191.093 C 49.219 189.942 49.984 188.668 50.342 188.262 C 51.465 186.988 48.503 185.276 46.96 186.306 M 78.4 188.023 C 78.4 188.422 78.21 189.247 77.979 189.856 L 77.557 190.964 L 76.569 189.225 C 76.026 188.268 75.63 187.448 75.691 187.402 C 77.132 186.299 78.4 186.59 78.4 188.023 M 48.66 187.106 C 48.988 187.316 48.855 187.917 48.199 189.2 L 47.277 191 L 46.995 189.503 C 46.562 187.21 47.257 186.21 48.66 187.106 M 225.612 190.033 C 223.61 192.565 223.613 192.695 225.719 195.022 L 227.439 196.921 L 230.219 196.469 C 231.749 196.22 233.984 195.743 235.187 195.408 C 236.39 195.074 238.651 194.8 240.212 194.8 C 242.864 194.8 243.128 194.719 244.225 193.564 L 245.4 192.328 L 244.015 191.164 C 242.762 190.111 242.351 190 239.705 190 C 238.095 190 235.389 189.655 233.689 189.234 C 227.507 187.701 227.451 187.706 225.612 190.033 M 234.283 190.228 C 235.869 190.543 238.414 190.8 239.939 190.8 C 242.128 190.8 242.91 190.968 243.656 191.599 L 244.6 192.398 L 243.478 193.399 C 242.47 194.298 242.014 194.4 239.003 194.4 C 237.158 194.4 234.446 194.679 232.974 195.021 C 228.937 195.957 227.331 195.71 225.896 193.932 L 224.711 192.463 L 226.043 190.806 C 227.542 188.941 227.727 188.928 234.283 190.228 M 148.72 191.434 C 146.35 192.163 146.095 192.582 147.47 193.482 C 149.818 195.02 162.357 194.265 162.121 192.6 C 161.908 191.097 152.48 190.277 148.72 191.434 M 198.295 191.172 C 193.018 191.908 195.204 193.922 201.466 194.093 C 206.184 194.221 207.209 193.237 204.041 191.621 C 202.387 190.777 201.582 190.714 198.295 191.172 M 318 191.172 C 313.43 192.086 314.411 193.574 320 194.205 C 323.784 194.633 324.311 194.914 324.638 196.682 C 324.793 197.517 325.289 199.19 325.74 200.4 C 326.483 202.39 326.582 203.8 326.78 215.2 C 326.969 226.036 327.084 227.8 327.6 227.8 C 328.113 227.8 328.236 226.202 328.445 216.8 C 328.759 202.708 328.708 202.969 331.651 200.249 C 332.943 199.055 334 197.78 334 197.416 C 334 196.766 328.65 194 327.392 194 C 327.081 194 326.264 193.449 325.575 192.775 C 323.588 190.833 321.696 190.433 318 191.172 M 159.685 192.325 C 160.814 193.454 152.927 194.02 149.8 193.034 L 148.2 192.529 L 150 192.043 C 150.99 191.776 151.947 191.518 152.126 191.47 C 152.972 191.244 159.322 191.962 159.685 192.325 M 340.288 191.835 C 338.125 193.008 340.663 193.994 345.857 193.998 C 349.536 194 350.504 193.299 348.72 191.925 C 347.513 190.997 341.944 190.937 340.288 191.835 M 203.396 192.147 C 204.125 192.681 204.125 192.704 203.372 193.074 C 202.339 193.582 197.108 193.136 196.906 192.523 C 196.759 192.077 197.326 191.975 201.624 191.672 C 202.186 191.632 202.984 191.846 203.396 192.147 M 323.252 192.028 C 324.991 192.959 323.351 193.696 320.224 193.389 C 317.147 193.087 315.738 192.615 316.8 192.244 C 318.58 191.622 322.263 191.499 323.252 192.028 M 347.902 192.5 C 347.721 193.047 343.668 193.404 342.1 193.011 C 340.239 192.543 341.721 192 344.857 192 C 347.246 192 348.024 192.128 347.902 192.5 M 97.2 203.6 C 97.2 213.836 97.488 216.858 98.15 213.55 C 98.733 210.635 98.431 192.4 97.8 192.4 C 97.281 192.4 97.2 193.911 97.2 203.6 M 257.2 203.6 C 257.2 213.894 257.513 217.113 258.143 213.3 C 258.719 209.819 258.433 192.4 257.8 192.4 C 257.281 192.4 257.2 193.911 257.2 203.6 M 305.542 194.282 C 303.521 194.593 302.158 197.918 303.501 199.261 C 305.549 201.309 310.045 199.313 309.377 196.652 C 309.083 195.478 307.755 193.977 307.084 194.06 C 306.818 194.093 306.124 194.193 305.542 194.282 M 44.4 204.803 C 44.4 213.146 44.159 214.9 42.947 215.365 C 40.761 216.204 39.667 199.79 41.65 195.902 L 42.5 194.236 L 43.45 195.34 C 44.384 196.427 44.4 196.581 44.4 204.803 M 83.49 195.7 C 85.144 198.728 84.267 215.2 82.452 215.2 C 80.545 215.2 79.322 198.845 80.988 195.623 C 81.802 194.048 82.601 194.073 83.49 195.7 M 205.6 196.189 C 205.6 197.888 207.007 201.6 207.651 201.6 C 209.457 201.6 210.093 197.447 208.564 195.631 C 206.916 193.671 205.6 193.919 205.6 196.189 M 350.7 194.832 C 349.822 195.344 349.794 197.124 350.6 201.335 C 351.047 203.67 351.2 207.411 351.2 215.986 C 351.2 228.297 351.353 229.256 353.134 228.134 C 353.701 227.776 353.811 226.828 353.876 221.757 C 353.917 218.481 354.164 211.615 354.424 206.501 L 354.897 197.202 L 353.828 195.801 C 352.732 194.365 351.93 194.116 350.7 194.832 M 184.274 195.246 C 182.622 196.208 182.793 199.29 184.525 199.754 C 188.067 200.704 190.563 198.476 188.773 195.962 C 187.882 194.71 185.773 194.375 184.274 195.246 M 330.197 195.998 C 333.32 197.4 333.332 197.185 329.968 200.315 L 327.336 202.765 L 326.464 200.282 C 325.367 197.16 325.372 196.205 326.489 195.423 C 327.569 194.666 327.046 194.585 330.197 195.998 M 208.205 196.551 C 208.819 197.488 208.389 199.6 207.584 199.6 C 206.918 199.6 206.329 197.281 206.781 196.436 C 207.345 195.382 207.444 195.39 208.205 196.551 M 353.269 196.262 C 354.168 197.076 354.198 198.825 353.4 204 C 353.027 206.421 352.784 211.43 352.731 217.8 L 352.648 227.8 L 352.393 216.4 C 352.203 207.892 351.949 203.969 351.391 200.935 C 350.484 196 351.149 194.344 353.269 196.262 M 165.5 196.432 C 164.927 196.766 164.8 197.412 164.8 199.998 C 164.8 204.695 164.424 205.022 157.654 206.205 C 150.141 207.518 150.13 207.644 157.43 208.84 C 165.081 210.093 166.488 212.284 164.438 219.755 C 162.797 225.735 165.58 231.648 168.771 228.963 L 170 227.929 L 169.995 214.664 C 169.989 197.232 169.253 194.246 165.5 196.432 M 308.165 196.916 C 308.845 197.996 307.581 199.045 306.451 198.339 C 305.417 197.693 305.38 197.255 306.3 196.558 C 307.133 195.926 307.596 196.015 308.165 196.916 M 188.164 197.051 C 188.58 198.136 187.703 198.83 186.57 198.313 C 185.421 197.79 185.347 197.387 186.3 196.832 C 187.311 196.243 187.88 196.31 188.164 197.051 M 168.947 200.482 C 169.478 202.663 169.6 205.437 169.6 215.312 L 169.6 227.461 L 168.595 228.405 L 167.59 229.349 L 166.495 228.532 C 165.019 227.432 164.335 223.572 165.092 220.613 C 166.986 213.205 165.38 209.362 160 208.428 C 155.735 207.688 155.539 207.409 158.873 206.826 C 164.192 205.897 165.296 204.886 165.796 200.488 C 166.327 195.813 167.809 195.811 168.947 200.482 M 141.589 212.02 C 138.401 217.978 140.297 227.194 144.187 224.645 C 145.186 223.991 145.21 223.868 145.166 219.687 C 145.122 215.552 145.481 213.568 146.375 213.015 C 147.174 212.522 146.8 212.038 145.3 211.621 C 143.067 211.001 142.078 211.107 141.589 212.02 M 143.6 212.391 C 144.719 213.098 144.715 222.485 143.596 223.604 L 142.711 224.489 L 141.877 223.655 C 140.693 222.471 140.279 218.157 141.086 215.425 C 142.087 212.041 142.416 211.643 143.6 212.391 M 121.221 220.169 C 119.587 222.544 119.774 224.185 121.897 226.107 C 123.439 227.502 126.384 223.863 125.531 221.618 C 124.366 218.555 122.714 218 121.221 220.169 M 281.249 220.252 C 279.758 222.503 279.717 223.062 280.914 224.838 C 283.074 228.043 286.864 224.32 284.962 220.861 C 283.51 218.219 282.685 218.084 281.249 220.252 M 48.294 222.912 C 47.075 223.371 46.678 222.705 47.008 220.755 L 47.299 219.033 L 48.211 220.816 L 49.123 222.6 L 48.294 222.912 M 77.994 221.9 C 77.998 222.551 77.766 222.8 77.157 222.8 C 76.511 222.8 76.382 222.636 76.603 222.1 C 76.761 221.715 76.985 221.07 77.101 220.666 C 77.37 219.725 77.985 220.573 77.994 221.9 M 124.211 222.035 C 124.47 222.851 123.363 224.8 122.64 224.8 C 121.401 224.8 120.811 222.634 121.677 221.267 C 122.561 219.87 123.626 220.192 124.211 222.035 M 284.228 222.087 C 284.454 222.799 283.118 224.8 282.417 224.8 C 281.366 224.8 280.887 222.514 281.677 221.267 C 282.57 219.856 283.627 220.196 284.228 222.087 M 101.462 221.131 C 100.56 222.128 100.631 222.79 101.793 224.2 C 103.292 226.02 104.29 223.953 103.136 221.419 C 102.583 220.206 102.337 220.164 101.462 221.131 M 231.383 221.37 C 230.393 222.881 232.941 227.649 235.228 228.565 C 237.616 229.52 242.444 229.427 243.656 228.401 L 244.6 227.602 L 243.478 226.601 C 242.47 225.702 242.014 225.6 239.004 225.6 C 234.687 225.6 233.6 225.204 233.6 223.629 C 233.6 220.949 232.436 219.763 231.383 221.37 M 261.462 221.131 C 260.583 222.103 260.625 222.585 261.73 224.211 C 263.219 226.402 264.367 224.121 263.136 221.419 C 262.583 220.206 262.337 220.164 261.462 221.131 M 58.843 225.808 C 53.339 226.804 53.896 228.142 60.321 229.361 C 63.838 230.028 66.523 231.176 67.138 232.275 C 67.695 233.271 70.175 231.285 71.322 228.925 L 72.195 227.127 L 71.075 226.163 C 69.744 225.018 64.109 224.854 58.843 225.808 M 69.842 226.591 C 71.1 227.415 71.066 227.597 69.296 229.592 L 67.792 231.286 L 66.36 230.442 C 65.573 229.977 63.243 229.236 61.182 228.796 C 56.795 227.859 56.188 227.464 58.145 226.818 C 61.746 225.63 68.185 225.505 69.842 226.591 M 104.06 226.442 C 103.124 228.951 110.949 230.227 113.685 228.012 L 114.56 227.303 L 113.321 226.663 C 110.966 225.445 104.489 225.29 104.06 226.442 M 147.341 225.997 C 143.113 227.703 150.226 230.245 155.055 228.754 C 158.346 227.737 158.445 227.424 155.79 226.431 C 153.463 225.56 148.993 225.331 147.341 225.997 M 264.1 226.039 C 261.721 228.519 270.763 230.378 273.687 228.01 L 274.56 227.303 L 273.321 226.663 C 271.624 225.785 264.787 225.322 264.1 226.039 M 111.9 227.066 C 113.555 227.472 112.825 227.916 110.042 228.196 C 106.706 228.531 104.886 227.921 106.228 226.917 C 106.971 226.362 109.279 226.422 111.9 227.066 M 154.854 226.969 L 156.2 227.538 L 155 227.981 C 154.34 228.224 153.544 228.515 153.231 228.626 C 152.603 228.849 148.543 228.101 147.611 227.591 C 145.887 226.647 152.707 226.061 154.854 226.969 M 242.96 226.921 C 244.043 227.713 243.059 228.254 240.066 228.512 C 236.844 228.79 234.122 227.885 235.389 226.958 C 236.393 226.225 241.97 226.197 242.96 226.921 M 271.9 227.066 C 273.555 227.472 272.825 227.916 270.042 228.196 C 266.706 228.531 264.886 227.921 266.228 226.917 C 266.971 226.362 269.279 226.422 271.9 227.066 M 71.031 236.477 C 70.464 237.287 70.489 237.448 71.36 238.577 C 72.586 240.167 73.367 240.146 73.524 238.518 C 73.768 235.995 72.243 234.746 71.031 236.477 M 77.6 240.672 C 74.972 240.942 74.4 241.184 74.4 242.027 C 74.4 244.203 81.857 245.311 84.15 243.476 L 85.3 242.555 L 84.019 241.478 C 82.714 240.379 81.694 240.251 77.6 240.672 M 83.408 241.757 C 84.794 242.77 83.515 243.6 80.57 243.6 C 76.912 243.6 74.522 242.341 77.1 241.773 C 77.705 241.639 78.38 241.47 78.6 241.397 C 79.682 241.036 82.735 241.264 83.408 241.757" /></g></svg>